<svg width="128" height="128" viewBox="0 0 128 128" fill="none" xmlns="http://www.w3.org/2000/svg">
  <defs>
    <linearGradient id="bronze" x1="20" y1="18" x2="107" y2="112" gradientUnits="userSpaceOnUse">
      <stop stop-color="#F2E7DB"/>
      <stop offset="0.28" stop-color="#D8C0A8"/>
      <stop offset="0.62" stop-color="#8D6C55"/>
      <stop offset="1" stop-color="#E2C2A5"/>
    </linearGradient>
    <linearGradient id="ivory" x1="38" y1="30" x2="88" y2="98" gradientUnits="userSpaceOnUse">
      <stop stop-color="#FFFDF9"/>
      <stop offset="1" stop-color="#E6DCD1"/>
    </linearGradient>
    <filter id="shadow" x="10" y="10" width="108" height="108" filterUnits="userSpaceOnUse">
      <feDropShadow dx="0" dy="6" stdDeviation="6" flood-color="#000000" flood-opacity="0.28"/>
    </filter>
  </defs>
  <g filter="url(#shadow)">
    <path d="M25 95C31 68 47 42 94 24" stroke="url(#bronze)" stroke-width="7" stroke-linecap="round"/>
    <path d="M103 34C94 75 73 94 34 103" stroke="url(#bronze)" stroke-width="7" stroke-linecap="round"/>
    <path d="M43 34H73L86 47V86C86 91 82 94 77 94H43C38 94 34 91 34 86V42C34 37 38 34 43 34Z" fill="#FFFFFF" fill-opacity="0.05" stroke="url(#bronze)" stroke-width="2.2"/>
    <path d="M73 34V47H86" stroke="url(#bronze)" stroke-width="2.2" stroke-linejoin="round"/>
    <path d="M48 86C53 72 63 56 75 44C79 40 84 38 88 38C88 42 86 48 81 53C70 64 60 73 48 86Z" fill="url(#ivory)"/>
    <path d="M49 85L61 73" stroke="#8D6C55" stroke-width="2" stroke-linecap="round"/>
    <path d="M58 72L49 95" stroke="url(#bronze)" stroke-width="4.5" stroke-linecap="round"/>
  </g>
</svg>
